<?xml version="1.0" standalone="no"?>
<!DOCTYPE svg PUBLIC "-//W3C//DTD SVG 20010904//EN"
 "http://www.w3.org/TR/2001/REC-SVG-20010904/DTD/svg10.dtd">
<svg version="1.0" xmlns="http://www.w3.org/2000/svg"
 width="900.000000pt" height="573.000000pt" viewBox="0 0 900.000000 573.000000"
 preserveAspectRatio="xMidYMid meet">
<metadata>
Created by potrace 1.10, written by Peter Selinger 2001-2011
</metadata>
<g transform="translate(0.000000,573.000000) scale(0.100000,-0.100000)"
fill="#000000" stroke="none">
<path d="M4400 4263 c0 -12 4 -24 9 -28 11 -6 52 -90 111 -229 23 -54 45 -106
49 -115 5 -9 15 -32 23 -51 29 -68 45 -105 61 -140 29 -65 67 -150 93 -213 14
-34 30 -66 35 -72 5 -5 9 -15 9 -22 0 -7 14 -43 31 -80 16 -38 36 -83 44 -101
8 -18 21 -47 29 -65 8 -17 21 -48 30 -67 8 -19 25 -60 39 -90 13 -30 48 -111
77 -180 68 -164 79 -189 99 -228 l16 -32 1144 -1 c629 0 1145 2 1147 4 6 6 10
1727 4 1727 -3 0 -690 1 -1528 3 l-1522 2 0 -22z m1777 -97 c3 -2 5 -91 6
-198 l2 -193 -55 0 -55 0 4 148 4 147 -629 -2 -629 -3 4 -110 c2 -60 5 -126 5
-145 l1 -35 -55 0 -55 0 -3 190 c-1 104 -1 194 1 200 4 10 1444 12 1454 1z
m1158 -46 l0 -52 -465 1 -465 2 2 -647 1 -647 466 2 466 3 0 -61 0 -61 -525 0
-525 0 0 753 c0 415 2 756 4 758 2 2 238 3 523 3 l518 -2 0 -52z m-1410 -168
c27 -8 31 -14 41 -68 21 -116 80 -182 185 -207 25 -6 27 -11 33 -79 3 -40 5
-258 5 -485 -1 -397 -1 -412 -21 -429 -25 -24 -111 -32 -229 -22 -147 11 -134
-44 -135 558 -1 485 -2 511 -21 547 -26 51 -95 103 -136 103 -40 0 -97 -45
-132 -103 l-24 -42 -1 -495 c-2 -499 -5 -542 -38 -555 -14 -5 -47 60 -37 75 7
11 6 714 -1 865 -2 61 -7 119 -11 130 -10 32 -52 83 -88 105 -51 32 -89 26
-139 -20 -76 -70 -76 -71 -76 -397 0 -272 -9 -383 -31 -383 -12 0 -39 43 -39
61 0 9 -6 22 -14 28 -8 7 -18 26 -22 43 -3 18 -19 53 -35 78 -16 26 -29 51
-29 56 0 5 -11 32 -25 59 -13 28 -25 56 -25 64 0 8 -9 33 -19 55 -62 133 -63
138 -45 178 9 21 21 38 25 38 4 0 24 20 44 44 27 33 40 62 51 112 7 37 17 71
22 76 5 5 35 12 67 16 81 10 863 5 900 -6z m1400 -3 c17 -17 9 -378 -9 -396
-3 -3 -1 -12 6 -20 7 -8 10 -48 9 -106 -4 -153 -4 -187 3 -317 8 -138 -3 -203
-37 -221 -19 -11 -143 -13 -546 -9 -249 3 -240 -2 -242 128 -3 256 1 862 7
894 7 46 15 51 79 58 86 9 719 0 730 -11z m-1629 -172 c3 -2 5 -254 5 -558 l0
-554 -51 0 -52 0 0 552 c0 304 3 556 6 561 6 10 82 9 92 -1z m-386 -558 l0
-560 -52 3 -53 3 -3 558 -2 557 55 0 55 0 0 -561z"/>
<path d="M6685 3851 c-35 -21 -54 -42 -84 -95 -26 -46 -39 -149 -22 -170 7 -8
10 -19 7 -24 -2 -4 18 -38 45 -75 55 -73 55 -78 3 -134 -112 -119 -49 -355
100 -377 l47 -7 77 69 77 69 85 3 c47 1 94 2 104 2 11 -1 28 4 39 9 37 20 108
94 122 127 13 31 13 36 -9 70 -13 20 -35 48 -50 61 -14 14 -26 31 -26 39 0 8
20 39 45 68 62 72 62 103 -2 166 -62 61 -98 74 -208 77 -99 2 -137 18 -175 71
-27 38 -80 70 -116 70 -16 0 -42 -8 -59 -19z m116 -83 c1 -7 0 -44 -1 -82 l-2
-69 199 4 198 4 3 -42 c2 -23 -2 -51 -7 -62 -9 -16 -16 -18 -48 -10 -21 5
-132 8 -248 7 l-210 -3 -3 133 -3 132 61 0 c41 0 60 -4 61 -12z m397 -489 c1
-24 -1 -49 -5 -55 -6 -8 -62 -9 -193 -5 -102 4 -188 5 -192 3 -5 -2 -8 -41 -8
-88 l0 -84 -60 0 -60 0 0 133 c0 74 2 136 4 138 2 2 118 4 258 3 l253 0 3 -45z"/>
<path d="M1534 4178 c-3 -4 -6 -347 -7 -763 l-2 -756 58 3 58 3 -1 703 0 702
73 0 74 0 89 -97 c49 -53 94 -101 100 -107 5 -6 57 -63 114 -126 57 -63 115
-127 129 -141 56 -56 122 -132 137 -155 23 -35 46 -30 82 19 17 23 50 62 74
87 24 25 81 88 128 140 89 100 149 165 190 209 14 14 54 59 89 99 l65 73 75
-3 76 -3 -1 -40 c-1 -22 -2 -337 -3 -700 l-2 -660 56 0 56 0 0 754 c0 414 -3
756 -6 759 -2 3 -71 5 -151 5 -173 -1 -138 20 -333 -203 -41 -47 -86 -97 -100
-111 -66 -67 -198 -215 -220 -245 -35 -49 -58 -44 -109 24 -38 52 -88 107
-231 257 -26 28 -87 95 -136 150 -49 55 -95 106 -102 113 -13 14 -311 23 -319
10z"/>
<path d="M4024 4177 c-8 -4 -14 -12 -14 -17 0 -6 -14 -40 -31 -77 -49 -107
-62 -136 -75 -168 -12 -28 -29 -65 -103 -228 -17 -37 -31 -73 -31 -81 0 -7 -7
-19 -15 -26 -8 -7 -15 -18 -15 -25 0 -8 -6 -26 -14 -42 -8 -15 -21 -44 -29
-63 -9 -19 -30 -66 -47 -105 -18 -38 -38 -83 -45 -100 -8 -16 -28 -61 -45
-100 -17 -38 -38 -85 -46 -102 -8 -18 -20 -48 -28 -65 -16 -37 -70 -155 -95
-208 -8 -19 -22 -43 -29 -52 -16 -20 -12 -63 6 -62 6 1 32 2 57 3 49 1 43 -7
92 108 38 89 47 109 55 123 4 8 11 22 14 30 9 26 41 98 94 215 33 72 50 110
75 167 7 18 28 65 45 103 17 39 38 84 45 100 7 17 25 57 40 90 15 33 36 80 47
105 11 25 26 59 33 75 16 34 57 129 86 195 45 101 37 95 120 98 l76 3 18 -43
c9 -24 23 -56 31 -73 43 -100 55 -125 78 -176 14 -31 26 -59 26 -62 0 -4 14
-37 31 -74 16 -38 36 -81 43 -98 7 -16 20 -47 29 -67 9 -21 23 -53 31 -70 8
-18 29 -64 46 -103 17 -38 38 -85 45 -103 8 -18 21 -48 29 -67 9 -20 22 -51
30 -70 21 -48 38 -87 75 -168 17 -37 31 -73 31 -81 0 -7 7 -19 15 -26 8 -7 15
-18 15 -25 0 -7 9 -33 20 -59 l21 -46 59 0 c41 0 60 4 60 12 0 7 -15 44 -33
83 -68 142 -97 205 -97 210 0 3 -14 35 -31 72 -16 38 -36 82 -43 98 -43 101
-47 110 -105 238 -17 37 -31 69 -31 72 0 3 -14 35 -31 72 -16 38 -36 82 -43
98 -7 17 -21 48 -30 70 -10 22 -24 54 -31 70 -7 17 -27 60 -44 98 -17 37 -31
69 -31 72 0 3 -13 33 -29 67 -15 35 -38 88 -51 118 -12 30 -25 59 -30 63 -10
11 -277 14 -296 4z"/>
<path d="M4148 3595 c-10 -13 -18 -31 -18 -39 0 -8 -6 -30 -14 -48 -8 -18 -44
-104 -81 -191 -36 -87 -77 -179 -91 -204 -13 -25 -24 -50 -24 -54 0 -5 27 -9
59 -9 61 0 91 15 91 45 0 8 6 29 14 47 8 18 21 49 30 70 9 20 16 44 16 55 1
26 37 70 48 58 5 -5 17 -35 26 -65 16 -53 30 -90 64 -172 15 -38 15 -38 74
-38 70 0 72 6 27 100 -32 67 -52 113 -73 165 -7 17 -20 46 -28 65 -16 36 -34
81 -62 158 -9 23 -16 51 -16 62 0 27 -21 25 -42 -5z"/>
<path d="M1917 3068 l3 -403 61 -3 62 -3 -7 78 c-10 134 -10 453 1 464 6 6 28
-12 64 -53 86 -99 81 -96 151 -98 107 -4 110 0 46 57 -50 45 -279 274 -326
326 -19 20 -39 37 -45 37 -9 0 -11 -101 -10 -402z"/>
<path d="M2767 3401 c-31 -38 -120 -129 -197 -202 -88 -84 -136 -137 -130
-143 5 -5 40 -8 77 -7 74 2 65 -5 169 115 39 45 70 49 60 9 -10 -41 -24 -497
-16 -506 4 -5 31 -7 59 -5 l52 3 2 403 c1 275 -1 402 -9 402 -5 0 -36 -31 -67
-69z"/>
<path d="M1519 2353 c-1 -4 -2 -65 -4 -136 -1 -95 2 -132 12 -145 12 -16 14
-16 32 5 14 17 17 33 13 73 l-5 51 54 -3 54 -3 -3 -51 c-3 -54 14 -82 43 -70
12 4 15 29 15 141 0 112 -3 137 -15 141 -29 12 -48 -17 -41 -62 6 -46 -2 -54
-52 -54 -44 0 -55 14 -56 67 -1 42 -4 48 -23 51 -13 2 -23 0 -24 -5z"/>
<path d="M1780 2253 c0 -134 4 -147 47 -173 41 -24 62 -25 106 -4 43 20 55 57
58 174 3 93 -2 110 -32 110 -18 0 -19 -8 -19 -108 0 -119 -5 -132 -56 -132
-57 0 -66 19 -62 134 3 98 2 101 -19 104 -23 3 -23 2 -23 -105z"/>
<path d="M2221 2346 c-10 -11 -11 -35 -6 -86 9 -90 -3 -91 -70 -9 -27 34 -56
68 -63 75 -14 15 -42 19 -42 7 0 -5 -1 -60 -2 -123 -2 -122 2 -140 33 -140 17
0 19 7 19 79 0 77 10 106 27 77 4 -7 24 -33 43 -57 102 -127 108 -125 107 48
-2 117 -4 138 -18 141 -9 1 -22 -4 -28 -12z"/>
<path d="M2378 2342 c-35 -22 -78 -89 -78 -124 0 -55 41 -112 100 -142 42 -20
68 -20 111 1 76 38 118 125 66 139 -44 10 -102 0 -105 -18 -3 -14 3 -18 27
-18 40 0 50 -19 21 -42 -33 -27 -100 -24 -135 6 -39 34 -41 95 -3 133 21 21
36 26 72 26 25 -1 59 -9 75 -19 35 -21 57 -9 47 23 -15 46 -143 68 -198 35z"/>
<path d="M2897 2338 c-9 -44 -1 -258 10 -269 17 -17 36 26 28 61 -4 16 -4 39
0 50 9 28 26 14 66 -56 20 -36 37 -54 50 -54 26 0 25 32 -4 67 -35 42 -41 64
-19 70 18 4 52 51 52 72 0 6 -16 26 -35 46 -32 31 -41 35 -89 35 -48 0 -54 -3
-59 -22z m104 -38 c16 0 20 -6 17 -27 -3 -25 -7 -28 -43 -28 -30 0 -41 4 -43
18 -5 23 17 49 35 42 8 -3 24 -5 34 -5z"/>
<path d="M3117 2353 c-4 -3 -7 -66 -7 -139 0 -134 7 -161 35 -133 15 16 25
245 12 267 -9 13 -30 16 -40 5z"/>
<path d="M3657 2353 c-4 -3 -7 -42 -7 -85 0 -43 -4 -78 -9 -78 -5 0 -33 30
-63 68 -102 130 -108 128 -108 -42 0 -80 4 -137 10 -141 6 -3 20 -3 31 0 20 7
21 12 14 81 -9 96 5 97 76 7 60 -77 67 -83 92 -83 15 0 17 13 17 128 0 86 -4
132 -12 140 -13 13 -31 16 -41 5z"/>
<path d="M3837 2353 c-4 -3 -7 -46 -7 -94 0 -111 17 -159 66 -182 44 -21 68
-21 102 0 49 30 52 40 52 165 0 109 -1 118 -19 118 -27 0 -31 -20 -25 -118 8
-101 -3 -122 -60 -122 -49 0 -58 17 -56 112 3 128 3 128 -23 128 -13 0 -27 -3
-30 -7z"/>
<path d="M4280 2276 c0 -82 -10 -112 -27 -82 -33 57 -130 159 -143 151 -6 -4
-10 -59 -10 -136 0 -106 3 -131 15 -135 8 -4 22 -1 31 6 12 11 14 26 8 82 -5
54 -4 68 7 68 12 0 76 -71 122 -134 8 -10 20 -17 28 -14 10 3 14 33 16 128 2
124 -4 150 -33 150 -11 0 -14 -19 -14 -84z"/>
<path d="M4460 2330 c0 -17 4 -38 9 -48 22 -40 67 -146 76 -180 4 -14 13 -22
23 -20 17 3 29 24 58 93 9 22 27 63 40 92 25 53 31 93 15 93 -19 0 -41 -13
-41 -24 0 -6 -6 -23 -14 -38 -8 -15 -17 -39 -21 -55 -13 -57 -55 -82 -55 -33
0 10 -4 22 -10 25 -5 3 -10 13 -10 22 0 26 -42 103 -57 103 -8 0 -13 -12 -13
-30z"/>
<path d="M4735 2348 c-2 -7 -6 -68 -10 -134 -8 -150 -4 -156 89 -152 58 3 61
4 64 30 3 26 2 27 -55 30 l-58 3 0 34 c0 31 4 35 38 45 50 14 52 30 5 34 -27
2 -39 9 -44 24 -9 28 4 36 61 40 46 3 50 5 53 31 l3 27 -71 0 c-48 0 -72 -4
-75 -12z"/>
<path d="M4930 2341 c-5 -11 -10 -71 -10 -134 0 -88 3 -117 15 -127 24 -20 35
-2 35 56 0 30 4 54 8 54 9 0 52 -55 52 -67 0 -18 47 -66 58 -59 20 12 14 40
-19 84 -30 41 -31 62 -3 62 21 0 37 44 30 82 -8 42 -51 68 -111 68 -34 0 -47
-5 -55 -19z m123 -51 c5 -4 7 -16 5 -26 -2 -14 -14 -20 -46 -22 -40 -3 -42 -2
-42 26 0 16 3 32 7 36 8 8 64 -2 76 -14z"/>
<path d="M5161 2334 c-34 -43 -27 -71 30 -124 34 -32 50 -53 47 -66 -4 -24
-41 -30 -58 -9 -7 8 -23 15 -36 15 -43 0 -24 -41 34 -75 30 -18 34 -18 58 -4
63 39 68 98 12 147 -58 50 -69 63 -62 73 4 7 22 9 46 5 49 -8 64 17 27 45 -35
27 -74 24 -98 -7z"/>
<path d="M5327 2333 c-6 -35 1 -252 9 -265 3 -5 12 -4 20 3 11 9 14 40 14 128
0 64 -3 126 -6 139 -9 31 -30 28 -37 -5z"/>
<path d="M5397 2353 c-14 -14 -6 -32 21 -45 27 -13 27 -14 28 -121 0 -119 9
-142 42 -109 15 15 20 30 17 54 -2 18 -7 61 -9 96 -6 60 -5 63 19 72 18 7 25
17 25 35 0 24 -2 25 -68 25 -38 0 -72 -3 -75 -7z"/>
<path d="M5570 2345 c0 -8 18 -44 40 -80 34 -55 40 -74 40 -119 0 -63 7 -86
25 -86 19 0 25 24 25 91 0 53 15 98 41 119 8 7 39 71 39 82 0 5 -12 8 -26 6
-20 -2 -33 -15 -51 -50 -14 -27 -29 -45 -34 -42 -5 3 -18 22 -29 43 -24 47
-70 71 -70 36z"/>
<path d="M5959 2342 c-68 -41 -96 -151 -53 -210 24 -31 89 -70 120 -71 34 -1
86 24 118 58 26 27 29 37 29 90 -1 66 -19 100 -74 133 -36 22 -104 22 -140 0z
m141 -62 c30 -30 41 -66 30 -92 -19 -47 -38 -61 -88 -66 -42 -4 -52 -1 -77 22
-36 34 -38 90 -5 129 20 22 32 27 72 27 35 0 54 -6 68 -20z"/>
<path d="M6226 2344 c-3 -9 -6 -71 -6 -139 0 -91 3 -125 14 -134 23 -19 38 12
34 71 -3 52 -2 53 27 58 30 5 49 39 23 41 -7 1 -22 2 -33 3 -14 1 -20 8 -20
26 0 23 4 25 58 28 56 3 57 4 57 32 l0 30 -74 0 c-58 0 -75 -3 -80 -16z"/>
<path d="M2708 2318 c-111 -223 -129 -281 -75 -245 12 8 26 28 31 45 16 57
136 56 136 -1 0 -19 27 -47 46 -47 22 0 17 26 -25 113 -22 45 -47 101 -57 125
-10 23 -23 42 -29 42 -6 0 -18 -15 -27 -32z m42 -88 c0 -23 -18 -36 -32 -22
-7 7 -6 17 2 31 13 24 30 19 30 -9z"/>
<path d="M3289 2322 c-16 -46 -24 -64 -64 -144 -37 -74 -41 -108 -12 -108 7 0
23 20 35 44 22 43 23 44 69 42 35 -1 49 -6 57 -21 27 -49 48 -75 57 -70 17 11
9 52 -21 108 -16 31 -30 63 -30 71 0 7 -6 19 -14 26 -8 6 -16 23 -18 37 -2 16
-12 29 -26 34 -19 7 -24 4 -33 -19z m35 -78 c23 -9 20 -44 -3 -44 -23 0 -35
15 -27 35 6 17 8 17 30 9z"/>
<path d="M4377 2343 c-4 -7 -2 -240 2 -266 0 -5 11 -7 24 -5 22 3 22 6 22 138
0 131 -1 135 -22 138 -11 2 -23 0 -26 -5z"/>
<path d="M1870 1862 c-32 -22 -42 -31 -63 -64 -70 -109 91 -270 201 -201 36
23 57 48 72 84 17 41 3 53 -62 54 -42 0 -53 -3 -56 -17 -3 -14 3 -18 27 -18
40 0 50 -19 21 -42 -33 -27 -102 -24 -137 6 -37 32 -39 93 -4 130 20 21 34 26
76 26 29 0 59 -6 71 -15 28 -21 44 -18 44 9 0 54 -131 88 -190 48z"/>
<path d="M2132 1868 c-8 -8 -12 -55 -12 -146 0 -133 0 -133 23 -130 19 3 22 9
22 53 0 43 3 50 19 50 13 0 27 -15 43 -44 29 -55 42 -71 59 -71 15 0 20 56 6
62 -4 2 -18 20 -30 40 l-23 37 28 13 c49 23 45 101 -8 131 -35 20 -109 23
-127 5z m123 -78 c0 -22 -5 -25 -43 -28 -31 -2 -44 1 -48 13 -10 26 16 46 55
43 31 -3 36 -7 36 -28z"/>
<path d="M2357 1873 c-4 -3 -7 -66 -7 -138 0 -105 3 -135 15 -145 24 -20 30
16 27 159 -2 98 -6 131 -16 131 -7 0 -16 -3 -19 -7z"/>
<path d="M2497 1854 c-60 -39 -83 -117 -54 -181 16 -36 36 -56 77 -77 44 -21
77 -20 128 4 32 16 42 26 42 45 0 33 -11 37 -46 14 -43 -28 -108 -26 -139 6
-32 31 -34 91 -4 129 17 22 28 26 73 26 30 0 60 -6 72 -15 28 -21 44 -18 44 9
0 17 -11 30 -36 45 -48 29 -108 27 -157 -5z"/>
<path d="M2736 1864 c-11 -30 -6 -184 8 -217 29 -70 111 -89 164 -39 34 32 46
90 40 202 -3 59 -5 65 -25 68 -26 4 -25 8 -23 -126 1 -97 -7 -112 -60 -112
-57 0 -64 15 -56 119 3 48 4 95 0 105 -8 21 -40 21 -48 0z"/>
<path d="M3002 1868 c-8 -8 -12 -55 -12 -133 0 -147 6 -158 91 -153 50 3 54 5
54 28 0 22 -5 26 -40 30 l-40 5 -3 107 c-2 92 -5 109 -21 117 -12 7 -22 6 -29
-1z"/>
<path d="M3137 1873 c-16 -15 -6 -44 18 -53 24 -9 25 -12 25 -109 0 -79 3
-103 16 -116 29 -29 37 -2 35 109 -2 100 -1 105 21 117 29 15 38 28 31 46 -5
14 -133 20 -146 6z"/>
<path d="M3316 1864 c-3 -9 -6 -61 -6 -116 l0 -101 36 -33 c41 -39 76 -43 123
-16 46 25 62 78 59 187 -3 89 -3 90 -28 90 -25 0 -25 0 -30 -115 l-5 -115 -29
-3 c-15 -2 -39 -1 -52 2 -23 6 -24 9 -24 105 0 106 -5 131 -25 131 -7 0 -16
-7 -19 -16z"/>
<path d="M3585 1870 c-8 -12 -13 -248 -7 -267 2 -7 13 -13 23 -13 17 0 19 8
19 60 0 33 4 60 8 60 9 0 52 -55 52 -67 0 -18 47 -66 58 -59 19 12 14 38 -18
85 -30 44 -31 61 -5 61 28 0 48 77 27 105 -27 38 -140 63 -157 35z m120 -80
c0 -22 -5 -25 -42 -28 -42 -3 -43 -2 -43 27 0 33 12 40 55 31 24 -4 30 -11 30
-30z"/>
<path d="M3807 1873 c-4 -3 -7 -66 -7 -139 0 -154 0 -154 94 -154 46 0 57 4
67 21 16 30 0 41 -63 43 l-53 1 -3 37 c-3 36 -2 37 35 40 27 2 39 8 41 21 3
13 -4 17 -30 17 -40 0 -58 14 -51 41 5 16 15 19 63 19 60 0 76 12 64 45 -5 11
-23 15 -78 15 -40 0 -76 -3 -79 -7z"/>
<path d="M4546 1865 c-3 -9 -3 -49 1 -90 5 -64 4 -75 -10 -75 -8 0 -17 4 -19
9 -4 11 -62 83 -105 131 -17 19 -35 31 -40 27 -11 -12 -4 -270 8 -282 19 -19
30 19 27 92 -1 40 1 75 5 79 4 4 18 -6 33 -22 14 -16 36 -40 48 -54 12 -14 31
-38 41 -53 10 -15 25 -27 34 -25 13 3 16 22 18 118 2 63 1 125 -2 138 -6 25
-30 30 -39 7z"/>
<path d="M4652 1868 c-8 -8 -12 -54 -12 -140 0 -142 3 -148 72 -148 139 1 221
133 144 234 -15 21 -36 40 -45 42 -9 3 -24 10 -33 15 -25 13 -112 11 -126 -3z
m133 -54 c9 -4 25 -24 36 -46 19 -38 19 -42 4 -74 -18 -39 -41 -54 -84 -54
-57 0 -61 5 -61 89 0 43 3 81 7 84 8 9 76 9 98 1z"/>
<path d="M5007 1874 c-4 -4 -7 -64 -7 -134 0 -153 6 -163 91 -158 50 3 54 5
54 28 0 22 -5 26 -40 30 l-40 5 -5 115 c-5 106 -7 115 -25 118 -12 2 -24 0
-28 -4z"/>
<path d="M5174 1855 c-8 -34 -1 -247 10 -263 6 -10 11 -10 22 -1 11 9 14 41
14 134 0 68 -3 130 -6 139 -9 24 -33 19 -40 -9z"/>
<path d="M5282 1868 c-8 -8 -12 -55 -12 -146 0 -133 0 -133 23 -130 19 3 22 9
23 53 2 74 1 73 36 77 44 4 53 38 11 38 -37 0 -56 13 -51 36 2 15 14 20 55 22
52 3 68 16 57 47 -8 19 -124 21 -142 3z"/>
<path d="M5472 1855 c-7 -15 -12 -73 -12 -135 0 -134 4 -140 97 -140 53 0 66
3 69 18 9 33 4 37 -53 42 l-58 5 0 35 c0 31 3 35 30 40 44 8 46 38 3 42 -28 2
-33 7 -33 28 0 23 4 25 58 28 56 3 57 4 57 32 l0 30 -73 0 c-69 0 -74 -2 -85
-25z"/>
<path d="M5777 1852 c-15 -15 -27 -37 -27 -48 0 -21 40 -67 84 -97 18 -13 26
-26 24 -40 -4 -30 -44 -34 -72 -8 -27 25 -51 14 -43 -20 7 -25 56 -59 87 -59
10 0 32 14 50 30 44 41 37 80 -25 136 -53 47 -60 79 -17 72 15 -3 33 -7 41 -9
26 -7 25 33 0 52 -35 27 -71 23 -102 -9z"/>
<path d="M6010 1862 c-55 -37 -80 -79 -80 -134 0 -71 78 -148 150 -148 50 0
119 45 120 78 0 17 -41 15 -64 -3 -43 -33 -127 -12 -147 37 -15 36 2 103 31
118 28 15 103 12 126 -5 22 -17 54 -20 54 -4 0 62 -127 104 -190 61z"/>
<path d="M6341 1863 c-5 -10 -9 -70 -9 -133 -1 -141 5 -150 88 -150 39 0 62 5
70 15 23 27 4 44 -52 47 l-53 3 -3 37 c-3 35 -2 37 30 40 47 4 51 35 6 40 -28
2 -34 7 -36 31 -3 27 -2 27 52 27 46 0 56 3 61 20 10 33 -3 40 -75 40 -56 0
-71 -3 -79 -17z"/>
<path d="M6709 1858 c0 -13 0 -53 1 -90 1 -38 -2 -68 -7 -68 -5 0 -24 18 -42
40 -72 87 -114 130 -122 124 -5 -3 -9 -66 -9 -140 0 -125 1 -134 19 -134 26 0
31 18 24 99 -4 46 -2 71 4 71 16 0 133 -135 133 -153 0 -4 10 -7 21 -5 21 3
22 8 22 129 0 69 -3 131 -7 137 -12 20 -36 13 -37 -10z"/>
<path d="M6866 1860 c-46 -29 -66 -68 -66 -129 0 -116 108 -183 209 -131 35
17 51 36 51 61 0 15 -40 10 -58 -7 -12 -12 -29 -15 -68 -12 -60 5 -93 33 -94
81 0 27 24 74 45 89 19 14 103 9 119 -7 20 -20 56 -19 56 1 0 9 -14 29 -31 45
-26 25 -39 29 -83 28 -31 0 -62 -7 -80 -19z"/>
<path d="M7112 1868 c-8 -8 -12 -54 -12 -140 0 -148 2 -151 98 -146 54 3 57 5
60 30 3 26 2 27 -55 30 l-58 3 0 35 c0 32 3 35 35 40 45 6 56 40 13 40 -37 0
-56 13 -51 36 2 15 15 20 60 24 65 6 72 11 63 39 -6 19 -14 21 -74 21 -39 0
-72 -5 -79 -12z"/>
<path d="M7321 1854 c-35 -45 -28 -77 29 -125 36 -30 50 -49 48 -63 -4 -26
-40 -33 -58 -11 -16 19 -60 20 -60 1 0 -19 70 -76 93 -76 33 0 87 55 87 88 0
24 -35 64 -87 99 -31 20 -30 53 0 53 13 0 28 -5 34 -11 6 -6 16 -8 22 -5 19
12 12 43 -14 60 -36 24 -70 20 -94 -10z"/>
<path d="M1628 1833 c-8 -21 -18 -45 -22 -53 -3 -8 -10 -22 -15 -30 -5 -8 -12
-22 -15 -30 -4 -8 -17 -35 -31 -59 -28 -50 -32 -81 -10 -81 19 0 55 36 55 55
0 24 41 43 84 38 31 -5 40 -11 51 -38 16 -37 40 -59 55 -50 16 10 12 28 -15
76 -14 24 -27 51 -31 59 -3 8 -13 31 -22 50 -52 116 -59 121 -84 63z m49 -97
c-6 -17 -27 -18 -33 -2 -3 9 -3 24 1 34 6 16 7 16 21 -3 8 -10 13 -24 11 -29z"/>
<path d="M4163 1801 c-18 -38 -33 -73 -33 -79 0 -6 -6 -17 -12 -24 -22 -23
-48 -79 -48 -100 0 -33 42 -19 62 22 23 44 39 56 75 54 15 -1 34 -3 40 -3 7
-1 19 -16 26 -33 16 -38 42 -62 57 -53 17 10 12 25 -37 125 -25 52 -53 110
-62 128 -8 17 -20 32 -26 32 -5 0 -25 -31 -42 -69z m64 -65 c-6 -17 -27 -18
-33 -2 -3 9 -3 24 1 34 6 16 7 16 21 -3 8 -10 13 -24 11 -29z"/>
<path d="M6237 1863 c-4 -3 -7 -64 -7 -135 0 -106 3 -130 15 -134 34 -14 41
11 39 138 -1 68 -2 126 -3 131 -1 9 -35 9 -44 0z"/>
</g>
</svg>
